<?xml version="1.0" encoding="UTF-8" standalone="no"?>
<!DOCTYPE svg PUBLIC "-//W3C//DTD SVG 1.1//EN"
 "http://www.w3.org/Graphics/SVG/1.1/DTD/svg11.dtd">
<!-- Generated by graphviz version 2.38.0 (20140413.2041)
 -->
<!-- Title: Tree Pages: 1 -->
<svg width="982pt" height="433pt"
 viewBox="0.00 0.00 982.00 433.00" xmlns="http://www.w3.org/2000/svg" xmlns:xlink="http://www.w3.org/1999/xlink">
<g id="graph0" class="graph" transform="scale(1 1) rotate(0) translate(4 429)">
<title>Tree</title>
<polygon fill="white" stroke="none" points="-4,4 -4,-429 978,-429 978,4 -4,4"/>
<!-- 0 -->
<g id="node1" class="node"><title>0</title>
<path fill="#e6f3fc" stroke="black" d="M535.5,-425C535.5,-425 428.5,-425 428.5,-425 422.5,-425 416.5,-419 416.5,-413 416.5,-413 416.5,-354 416.5,-354 416.5,-348 422.5,-342 428.5,-342 428.5,-342 535.5,-342 535.5,-342 541.5,-342 547.5,-348 547.5,-354 547.5,-354 547.5,-413 547.5,-413 547.5,-419 541.5,-425 535.5,-425"/>
<text text-anchor="middle" x="482" y="-409.8" font-family="Helvetica,sans-Serif" font-size="14.00">是否有促销 &lt;= 0.5</text>
<text text-anchor="middle" x="482" y="-394.8" font-family="Helvetica,sans-Serif" font-size="14.00">gini = 0.498</text>
<text text-anchor="middle" x="482" y="-379.8" font-family="Helvetica,sans-Serif" font-size="14.00">samples = 30</text>
<text text-anchor="middle" x="482" y="-364.8" font-family="Helvetica,sans-Serif" font-size="14.00">value = [14, 16]</text>
<text text-anchor="middle" x="482" y="-349.8" font-family="Helvetica,sans-Serif" font-size="14.00">class = 销量高</text>
</g>
<!-- 1 -->
<g id="node2" class="node"><title>1</title>
<path fill="#eeab7b" stroke="black" d="M404,-306C404,-306 312,-306 312,-306 306,-306 300,-300 300,-294 300,-294 300,-235 300,-235 300,-229 306,-223 312,-223 312,-223 404,-223 404,-223 410,-223 416,-229 416,-235 416,-235 416,-294 416,-294 416,-300 410,-306 404,-306"/>
<text text-anchor="middle" x="358" y="-290.8" font-family="Helvetica,sans-Serif" font-size="14.00">是否周末 &lt;= 0.5</text>
<text text-anchor="middle" x="358" y="-275.8" font-family="Helvetica,sans-Serif" font-size="14.00">gini = 0.375</text>
<text text-anchor="middle" x="358" y="-260.8" font-family="Helvetica,sans-Serif" font-size="14.00">samples = 12</text>
<text text-anchor="middle" x="358" y="-245.8" font-family="Helvetica,sans-Serif" font-size="14.00">value = [9, 3]</text>
<text text-anchor="middle" x="358" y="-230.8" font-family="Helvetica,sans-Serif" font-size="14.00">class = 销量低</text>
</g>
<!-- 0&#45;&gt;1 -->
<g id="edge1" class="edge"><title>0&#45;&gt;1</title>
<path fill="none" stroke="black" d="M438.979,-341.907C429.072,-332.56 418.45,-322.538 408.266,-312.929"/>
<polygon fill="black" stroke="black" points="410.621,-310.338 400.945,-306.021 405.817,-315.429 410.621,-310.338"/>
<text text-anchor="middle" x="401.671" y="-327.31" font-family="Helvetica,sans-Serif" font-size="14.00">True</text>
</g>
<!-- 8 -->
<g id="node9" class="node"><title>8</title>
<path fill="#85c3ef" stroke="black" d="M657,-306C657,-306 565,-306 565,-306 559,-306 553,-300 553,-294 553,-294 553,-235 553,-235 553,-229 559,-223 565,-223 565,-223 657,-223 657,-223 663,-223 669,-229 669,-235 669,-235 669,-294 669,-294 669,-300 663,-306 657,-306"/>
<text text-anchor="middle" x="611" y="-290.8" font-family="Helvetica,sans-Serif" font-size="14.00">是否周末 &lt;= 0.5</text>
<text text-anchor="middle" x="611" y="-275.8" font-family="Helvetica,sans-Serif" font-size="14.00">gini = 0.401</text>
<text text-anchor="middle" x="611" y="-260.8" font-family="Helvetica,sans-Serif" font-size="14.00">samples = 18</text>
<text text-anchor="middle" x="611" y="-245.8" font-family="Helvetica,sans-Serif" font-size="14.00">value = [5, 13]</text>
<text text-anchor="middle" x="611" y="-230.8" font-family="Helvetica,sans-Serif" font-size="14.00">class = 销量高</text>
</g>
<!-- 0&#45;&gt;8 -->
<g id="edge8" class="edge"><title>0&#45;&gt;8</title>
<path fill="none" stroke="black" d="M526.756,-341.907C537.062,-332.56 548.112,-322.538 558.707,-312.929"/>
<polygon fill="black" stroke="black" points="561.267,-315.332 566.323,-306.021 556.565,-310.146 561.267,-315.332"/>
<text text-anchor="middle" x="565.105" y="-327.291" font-family="Helvetica,sans-Serif" font-size="14.00">False</text>
</g>
<!-- 2 -->
<g id="node3" class="node"><title>2</title>
<path fill="#e99355" stroke="black" d="M218,-187C218,-187 136,-187 136,-187 130,-187 124,-181 124,-175 124,-175 124,-116 124,-116 124,-110 130,-104 136,-104 136,-104 218,-104 218,-104 224,-104 230,-110 230,-116 230,-116 230,-175 230,-175 230,-181 224,-187 218,-187"/>
<text text-anchor="middle" x="177" y="-171.8" font-family="Helvetica,sans-Serif" font-size="14.00">天气 &lt;= 0.5</text>
<text text-anchor="middle" x="177" y="-156.8" font-family="Helvetica,sans-Serif" font-size="14.00">gini = 0.219</text>
<text text-anchor="middle" x="177" y="-141.8" font-family="Helvetica,sans-Serif" font-size="14.00">samples = 8</text>
<text text-anchor="middle" x="177" y="-126.8" font-family="Helvetica,sans-Serif" font-size="14.00">value = [7, 1]</text>
<text text-anchor="middle" x="177" y="-111.8" font-family="Helvetica,sans-Serif" font-size="14.00">class = 销量低</text>
</g>
<!-- 1&#45;&gt;2 -->
<g id="edge2" class="edge"><title>1&#45;&gt;2</title>
<path fill="none" stroke="black" d="M299.734,-225.836C280.289,-213.267 258.561,-199.222 238.853,-186.482"/>
<polygon fill="black" stroke="black" points="240.549,-183.411 230.251,-180.922 236.749,-189.29 240.549,-183.411"/>
</g>
<!-- 5 -->
<g id="node6" class="node"><title>5</title>
<path fill="#ffffff" stroke="black" d="M399,-187C399,-187 317,-187 317,-187 311,-187 305,-181 305,-175 305,-175 305,-116 305,-116 305,-110 311,-104 317,-104 317,-104 399,-104 399,-104 405,-104 411,-110 411,-116 411,-116 411,-175 411,-175 411,-181 405,-187 399,-187"/>
<text text-anchor="middle" x="358" y="-171.8" font-family="Helvetica,sans-Serif" font-size="14.00">天气 &lt;= 0.5</text>
<text text-anchor="middle" x="358" y="-156.8" font-family="Helvetica,sans-Serif" font-size="14.00">gini = 0.5</text>
<text text-anchor="middle" x="358" y="-141.8" font-family="Helvetica,sans-Serif" font-size="14.00">samples = 4</text>
<text text-anchor="middle" x="358" y="-126.8" font-family="Helvetica,sans-Serif" font-size="14.00">value = [2, 2]</text>
<text text-anchor="middle" x="358" y="-111.8" font-family="Helvetica,sans-Serif" font-size="14.00">class = 销量低</text>
</g>
<!-- 1&#45;&gt;5 -->
<g id="edge5" class="edge"><title>1&#45;&gt;5</title>
<path fill="none" stroke="black" d="M358,-222.907C358,-214.649 358,-205.864 358,-197.302"/>
<polygon fill="black" stroke="black" points="361.5,-197.021 358,-187.021 354.5,-197.021 361.5,-197.021"/>
</g>
<!-- 3 -->
<g id="node4" class="node"><title>3</title>
<path fill="#e58139" stroke="black" d="M94,-68C94,-68 12,-68 12,-68 6,-68 7.10543e-15,-62 7.10543e-15,-56 7.10543e-15,-56 7.10543e-15,-12 7.10543e-15,-12 7.10543e-15,-6 6,-0 12,-0 12,-0 94,-0 94,-0 100,-0 106,-6 106,-12 106,-12 106,-56 106,-56 106,-62 100,-68 94,-68"/>
<text text-anchor="middle" x="53" y="-52.8" font-family="Helvetica,sans-Serif" font-size="14.00">gini = 0.0</text>
<text text-anchor="middle" x="53" y="-37.8" font-family="Helvetica,sans-Serif" font-size="14.00">samples = 4</text>
<text text-anchor="middle" x="53" y="-22.8" font-family="Helvetica,sans-Serif" font-size="14.00">value = [4, 0]</text>
<text text-anchor="middle" x="53" y="-7.8" font-family="Helvetica,sans-Serif" font-size="14.00">class = 销量低</text>
</g>
<!-- 2&#45;&gt;3 -->
<g id="edge3" class="edge"><title>2&#45;&gt;3</title>
<path fill="none" stroke="black" d="M130.827,-103.726C120.189,-94.3318 108.884,-84.349 98.2836,-74.9883"/>
<polygon fill="black" stroke="black" points="100.522,-72.2953 90.7091,-68.2996 95.8882,-77.5424 100.522,-72.2953"/>
</g>
<!-- 4 -->
<g id="node5" class="node"><title>4</title>
<path fill="#eeab7b" stroke="black" d="M218,-68C218,-68 136,-68 136,-68 130,-68 124,-62 124,-56 124,-56 124,-12 124,-12 124,-6 130,-0 136,-0 136,-0 218,-0 218,-0 224,-0 230,-6 230,-12 230,-12 230,-56 230,-56 230,-62 224,-68 218,-68"/>
<text text-anchor="middle" x="177" y="-52.8" font-family="Helvetica,sans-Serif" font-size="14.00">gini = 0.375</text>
<text text-anchor="middle" x="177" y="-37.8" font-family="Helvetica,sans-Serif" font-size="14.00">samples = 4</text>
<text text-anchor="middle" x="177" y="-22.8" font-family="Helvetica,sans-Serif" font-size="14.00">value = [3, 1]</text>
<text text-anchor="middle" x="177" y="-7.8" font-family="Helvetica,sans-Serif" font-size="14.00">class = 销量低</text>
</g>
<!-- 2&#45;&gt;4 -->
<g id="edge4" class="edge"><title>2&#45;&gt;4</title>
<path fill="none" stroke="black" d="M177,-103.726C177,-95.5175 177,-86.8595 177,-78.56"/>
<polygon fill="black" stroke="black" points="180.5,-78.2996 177,-68.2996 173.5,-78.2996 180.5,-78.2996"/>
</g>
<!-- 6 -->
<g id="node7" class="node"><title>6</title>
<path fill="#f2c09c" stroke="black" d="M342,-68C342,-68 260,-68 260,-68 254,-68 248,-62 248,-56 248,-56 248,-12 248,-12 248,-6 254,-0 260,-0 260,-0 342,-0 342,-0 348,-0 354,-6 354,-12 354,-12 354,-56 354,-56 354,-62 348,-68 342,-68"/>
<text text-anchor="middle" x="301" y="-52.8" font-family="Helvetica,sans-Serif" font-size="14.00">gini = 0.444</text>
<text text-anchor="middle" x="301" y="-37.8" font-family="Helvetica,sans-Serif" font-size="14.00">samples = 3</text>
<text text-anchor="middle" x="301" y="-22.8" font-family="Helvetica,sans-Serif" font-size="14.00">value = [2, 1]</text>
<text text-anchor="middle" x="301" y="-7.8" font-family="Helvetica,sans-Serif" font-size="14.00">class = 销量低</text>
</g>
<!-- 5&#45;&gt;6 -->
<g id="edge6" class="edge"><title>5&#45;&gt;6</title>
<path fill="none" stroke="black" d="M336.775,-103.726C332.265,-95.0615 327.494,-85.8962 322.957,-77.1802"/>
<polygon fill="black" stroke="black" points="326.056,-75.5537 318.334,-68.2996 319.847,-78.7859 326.056,-75.5537"/>
</g>
<!-- 7 -->
<g id="node8" class="node"><title>7</title>
<path fill="#399de5" stroke="black" d="M466,-68C466,-68 384,-68 384,-68 378,-68 372,-62 372,-56 372,-56 372,-12 372,-12 372,-6 378,-0 384,-0 384,-0 466,-0 466,-0 472,-0 478,-6 478,-12 478,-12 478,-56 478,-56 478,-62 472,-68 466,-68"/>
<text text-anchor="middle" x="425" y="-52.8" font-family="Helvetica,sans-Serif" font-size="14.00">gini = 0.0</text>
<text text-anchor="middle" x="425" y="-37.8" font-family="Helvetica,sans-Serif" font-size="14.00">samples = 1</text>
<text text-anchor="middle" x="425" y="-22.8" font-family="Helvetica,sans-Serif" font-size="14.00">value = [0, 1]</text>
<text text-anchor="middle" x="425" y="-7.8" font-family="Helvetica,sans-Serif" font-size="14.00">class = 销量高</text>
</g>
<!-- 5&#45;&gt;7 -->
<g id="edge7" class="edge"><title>5&#45;&gt;7</title>
<path fill="none" stroke="black" d="M382.948,-103.726C388.306,-94.9703 393.976,-85.7032 399.359,-76.9051"/>
<polygon fill="black" stroke="black" points="402.391,-78.6563 404.625,-68.2996 396.42,-75.0028 402.391,-78.6563"/>
</g>
<!-- 9 -->
<g id="node10" class="node"><title>9</title>
<path fill="#d7ebfa" stroke="black" d="M652,-187C652,-187 570,-187 570,-187 564,-187 558,-181 558,-175 558,-175 558,-116 558,-116 558,-110 564,-104 570,-104 570,-104 652,-104 652,-104 658,-104 664,-110 664,-116 664,-116 664,-175 664,-175 664,-181 658,-187 652,-187"/>
<text text-anchor="middle" x="611" y="-171.8" font-family="Helvetica,sans-Serif" font-size="14.00">天气 &lt;= 0.5</text>
<text text-anchor="middle" x="611" y="-156.8" font-family="Helvetica,sans-Serif" font-size="14.00">gini = 0.494</text>
<text text-anchor="middle" x="611" y="-141.8" font-family="Helvetica,sans-Serif" font-size="14.00">samples = 9</text>
<text text-anchor="middle" x="611" y="-126.8" font-family="Helvetica,sans-Serif" font-size="14.00">value = [4, 5]</text>
<text text-anchor="middle" x="611" y="-111.8" font-family="Helvetica,sans-Serif" font-size="14.00">class = 销量高</text>
</g>
<!-- 8&#45;&gt;9 -->
<g id="edge9" class="edge"><title>8&#45;&gt;9</title>
<path fill="none" stroke="black" d="M611,-222.907C611,-214.649 611,-205.864 611,-197.302"/>
<polygon fill="black" stroke="black" points="614.5,-197.021 611,-187.021 607.5,-197.021 614.5,-197.021"/>
</g>
<!-- 12 -->
<g id="node13" class="node"><title>12</title>
<path fill="#52a9e8" stroke="black" d="M838,-187C838,-187 756,-187 756,-187 750,-187 744,-181 744,-175 744,-175 744,-116 744,-116 744,-110 750,-104 756,-104 756,-104 838,-104 838,-104 844,-104 850,-110 850,-116 850,-116 850,-175 850,-175 850,-181 844,-187 838,-187"/>
<text text-anchor="middle" x="797" y="-171.8" font-family="Helvetica,sans-Serif" font-size="14.00">天气 &lt;= 0.5</text>
<text text-anchor="middle" x="797" y="-156.8" font-family="Helvetica,sans-Serif" font-size="14.00">gini = 0.198</text>
<text text-anchor="middle" x="797" y="-141.8" font-family="Helvetica,sans-Serif" font-size="14.00">samples = 9</text>
<text text-anchor="middle" x="797" y="-126.8" font-family="Helvetica,sans-Serif" font-size="14.00">value = [1, 8]</text>
<text text-anchor="middle" x="797" y="-111.8" font-family="Helvetica,sans-Serif" font-size="14.00">class = 销量高</text>
</g>
<!-- 8&#45;&gt;12 -->
<g id="edge12" class="edge"><title>8&#45;&gt;12</title>
<path fill="none" stroke="black" d="M669.086,-226.962C690.072,-213.761 713.831,-198.816 735.129,-185.419"/>
<polygon fill="black" stroke="black" points="737.177,-188.266 743.778,-179.979 733.449,-182.34 737.177,-188.266"/>
</g>
<!-- 10 -->
<g id="node11" class="node"><title>10</title>
<path fill="#ffffff" stroke="black" d="M590,-68C590,-68 508,-68 508,-68 502,-68 496,-62 496,-56 496,-56 496,-12 496,-12 496,-6 502,-0 508,-0 508,-0 590,-0 590,-0 596,-0 602,-6 602,-12 602,-12 602,-56 602,-56 602,-62 596,-68 590,-68"/>
<text text-anchor="middle" x="549" y="-52.8" font-family="Helvetica,sans-Serif" font-size="14.00">gini = 0.5</text>
<text text-anchor="middle" x="549" y="-37.8" font-family="Helvetica,sans-Serif" font-size="14.00">samples = 4</text>
<text text-anchor="middle" x="549" y="-22.8" font-family="Helvetica,sans-Serif" font-size="14.00">value = [2, 2]</text>
<text text-anchor="middle" x="549" y="-7.8" font-family="Helvetica,sans-Serif" font-size="14.00">class = 销量低</text>
</g>
<!-- 9&#45;&gt;10 -->
<g id="edge10" class="edge"><title>9&#45;&gt;10</title>
<path fill="none" stroke="black" d="M587.913,-103.726C583.007,-95.0615 577.818,-85.8962 572.883,-77.1802"/>
<polygon fill="black" stroke="black" points="575.827,-75.277 567.855,-68.2996 569.736,-78.726 575.827,-75.277"/>
</g>
<!-- 11 -->
<g id="node12" class="node"><title>11</title>
<path fill="#bddef6" stroke="black" d="M714,-68C714,-68 632,-68 632,-68 626,-68 620,-62 620,-56 620,-56 620,-12 620,-12 620,-6 626,-0 632,-0 632,-0 714,-0 714,-0 720,-0 726,-6 726,-12 726,-12 726,-56 726,-56 726,-62 720,-68 714,-68"/>
<text text-anchor="middle" x="673" y="-52.8" font-family="Helvetica,sans-Serif" font-size="14.00">gini = 0.48</text>
<text text-anchor="middle" x="673" y="-37.8" font-family="Helvetica,sans-Serif" font-size="14.00">samples = 5</text>
<text text-anchor="middle" x="673" y="-22.8" font-family="Helvetica,sans-Serif" font-size="14.00">value = [2, 3]</text>
<text text-anchor="middle" x="673" y="-7.8" font-family="Helvetica,sans-Serif" font-size="14.00">class = 销量高</text>
</g>
<!-- 9&#45;&gt;11 -->
<g id="edge11" class="edge"><title>9&#45;&gt;11</title>
<path fill="none" stroke="black" d="M634.087,-103.726C638.993,-95.0615 644.182,-85.8962 649.117,-77.1802"/>
<polygon fill="black" stroke="black" points="652.264,-78.726 654.145,-68.2996 646.173,-75.277 652.264,-78.726"/>
</g>
<!-- 13 -->
<g id="node14" class="node"><title>13</title>
<path fill="#6ab6ec" stroke="black" d="M838,-68C838,-68 756,-68 756,-68 750,-68 744,-62 744,-56 744,-56 744,-12 744,-12 744,-6 750,-0 756,-0 756,-0 838,-0 838,-0 844,-0 850,-6 850,-12 850,-12 850,-56 850,-56 850,-62 844,-68 838,-68"/>
<text text-anchor="middle" x="797" y="-52.8" font-family="Helvetica,sans-Serif" font-size="14.00">gini = 0.32</text>
<text text-anchor="middle" x="797" y="-37.8" font-family="Helvetica,sans-Serif" font-size="14.00">samples = 5</text>
<text text-anchor="middle" x="797" y="-22.8" font-family="Helvetica,sans-Serif" font-size="14.00">value = [1, 4]</text>
<text text-anchor="middle" x="797" y="-7.8" font-family="Helvetica,sans-Serif" font-size="14.00">class = 销量高</text>
</g>
<!-- 12&#45;&gt;13 -->
<g id="edge13" class="edge"><title>12&#45;&gt;13</title>
<path fill="none" stroke="black" d="M797,-103.726C797,-95.5175 797,-86.8595 797,-78.56"/>
<polygon fill="black" stroke="black" points="800.5,-78.2996 797,-68.2996 793.5,-78.2996 800.5,-78.2996"/>
</g>
<!-- 14 -->
<g id="node15" class="node"><title>14</title>
<path fill="#399de5" stroke="black" d="M962,-68C962,-68 880,-68 880,-68 874,-68 868,-62 868,-56 868,-56 868,-12 868,-12 868,-6 874,-0 880,-0 880,-0 962,-0 962,-0 968,-0 974,-6 974,-12 974,-12 974,-56 974,-56 974,-62 968,-68 962,-68"/>
<text text-anchor="middle" x="921" y="-52.8" font-family="Helvetica,sans-Serif" font-size="14.00">gini = 0.0</text>
<text text-anchor="middle" x="921" y="-37.8" font-family="Helvetica,sans-Serif" font-size="14.00">samples = 4</text>
<text text-anchor="middle" x="921" y="-22.8" font-family="Helvetica,sans-Serif" font-size="14.00">value = [0, 4]</text>
<text text-anchor="middle" x="921" y="-7.8" font-family="Helvetica,sans-Serif" font-size="14.00">class = 销量高</text>
</g>
<!-- 12&#45;&gt;14 -->
<g id="edge14" class="edge"><title>12&#45;&gt;14</title>
<path fill="none" stroke="black" d="M843.173,-103.726C853.811,-94.3318 865.116,-84.349 875.716,-74.9883"/>
<polygon fill="black" stroke="black" points="878.112,-77.5424 883.291,-68.2996 873.478,-72.2953 878.112,-77.5424"/>
</g>
</g>
</svg>
